<svg width="13" height="14" viewBox="0 0 13 14" fill="none" xmlns="http://www.w3.org/2000/svg">
<path d="M9.58923 13.9998H3.40989C2.92257 13.9922 2.45734 13.7956 2.11271 13.4517C1.76807 13.1078 1.57109 12.6435 1.56348 12.1572V3.82258C1.57531 3.67251 1.6434 3.5324 1.75417 3.43022C1.86495 3.32803 2.01025 3.27127 2.1611 3.27127C2.31196 3.27127 2.45726 3.32803 2.56803 3.43022C2.6788 3.5324 2.74689 3.67251 2.75873 3.82258V12.1559C2.76708 12.3262 2.83863 12.4874 2.95945 12.6079C3.08026 12.7285 3.2417 12.7999 3.41236 12.8082H9.5917C9.76257 12.8002 9.92431 12.7289 10.0454 12.6083C10.1665 12.4877 10.2382 12.3264 10.2466 12.1559V3.82258C10.2466 3.66425 10.3096 3.5124 10.4218 3.40044C10.534 3.28848 10.6861 3.22559 10.8448 3.22559C11.0035 3.22559 11.1556 3.28848 11.2678 3.40044C11.38 3.5124 11.443 3.66425 11.443 3.82258V12.1559C11.4357 12.6437 11.2378 13.1094 10.8916 13.4538C10.5453 13.7981 10.0781 13.994 9.58923 13.9998Z" fill="#EE9090"/>
<path d="M12.4005 4.41616H0.598237C0.439574 4.41616 0.287412 4.35326 0.17522 4.2413C0.0630286 4.12934 0 3.9775 0 3.81916C0 3.66083 0.0630286 3.50898 0.17522 3.39702C0.287412 3.28507 0.439574 3.22217 0.598237 3.22217H12.4005C12.4791 3.22217 12.5569 3.23761 12.6295 3.26761C12.702 3.29761 12.768 3.34159 12.8235 3.39702C12.8791 3.45246 12.9232 3.51827 12.9532 3.5907C12.9833 3.66313 12.9988 3.74076 12.9988 3.81916C12.9988 3.89756 12.9833 3.97519 12.9532 4.04762C12.9232 4.12005 12.8791 4.18587 12.8235 4.2413C12.768 4.29674 12.702 4.34071 12.6295 4.37071C12.5569 4.40072 12.4791 4.41616 12.4005 4.41616Z" fill="#EE9090"/>
<path d="M8.36413 4.41615C8.20621 4.41584 8.05479 4.35334 7.94277 4.24225C7.83075 4.13115 7.76719 3.98044 7.7659 3.82284V2.19401H5.23261V3.82284C5.23261 3.98118 5.16958 4.13303 5.05739 4.24498C4.9452 4.35694 4.79304 4.41984 4.63437 4.41984C4.47571 4.41984 4.32355 4.35694 4.21136 4.24498C4.09917 4.13303 4.03614 3.98118 4.03614 3.82284V1.59701C4.03581 1.51841 4.05105 1.44051 4.08097 1.3678C4.11089 1.29508 4.1549 1.22898 4.21049 1.17328C4.26607 1.11759 4.33213 1.07339 4.40487 1.04324C4.47762 1.01308 4.55561 0.997558 4.63437 0.997559H8.36413C8.5228 0.997559 8.67497 1.06046 8.78716 1.17241C8.89935 1.28437 8.96238 1.43622 8.96238 1.59455V3.82284C8.9614 3.98054 8.89794 4.13144 8.78586 4.2426C8.67377 4.35377 8.52216 4.41616 8.36413 4.41615Z" fill="#EE9090"/>
<path d="M4.99644 11.2214C4.91778 11.2215 4.83985 11.2062 4.76713 11.1763C4.6944 11.1464 4.62831 11.1024 4.57263 11.047C4.51695 10.9915 4.47277 10.9256 4.44263 10.8531C4.41249 10.7806 4.39697 10.7029 4.39697 10.6244V6.59651C4.40396 6.4427 4.47011 6.29751 4.58165 6.19113C4.69319 6.08475 4.84154 6.02539 4.99583 6.02539C5.15011 6.02539 5.29847 6.08475 5.41001 6.19113C5.52155 6.29751 5.58769 6.4427 5.59468 6.59651V10.6244C5.59468 10.7827 5.53165 10.9346 5.41946 11.0465C5.30727 11.1585 5.1551 11.2214 4.99644 11.2214Z" fill="#EE9090"/>
<path d="M8.00254 11.2214C7.92393 11.2215 7.84606 11.2062 7.77341 11.1763C7.70075 11.1463 7.63474 11.1024 7.57916 11.0469C7.52357 10.9914 7.47951 10.9255 7.4495 10.853C7.4195 10.7805 7.40414 10.7028 7.4043 10.6244V6.59651C7.4043 6.43817 7.46733 6.28633 7.57952 6.17437C7.69171 6.06241 7.84387 5.99951 8.00254 5.99951C8.1612 5.99951 8.31337 6.06241 8.42556 6.17437C8.53775 6.28633 8.60078 6.43817 8.60078 6.59651V10.6244C8.60094 10.7028 8.58557 10.7805 8.55557 10.853C8.52556 10.9255 8.4815 10.9914 8.42592 11.0469C8.37034 11.1024 8.30432 11.1463 8.23167 11.1763C8.15901 11.2062 8.08114 11.2215 8.00254 11.2214Z" fill="#EE9090"/>
</svg>
