<svg width="51" height="51" viewBox="0 0 51 51" fill="none" xmlns="http://www.w3.org/2000/svg">
<g clip-path="url(#clip0_221_2040)">
<path d="M37.6185 51.0001H13.3764C11.4646 50.9702 9.6395 50.1991 8.28748 48.8499C6.93546 47.5007 6.16269 45.6793 6.13281 43.7715V11.0742C6.17923 10.4855 6.44637 9.93584 6.88093 9.53495C7.3155 9.13407 7.88556 8.91141 8.47735 8.91141C9.06915 8.91141 9.63918 9.13407 10.0737 9.53495C10.5083 9.93584 10.7755 10.4855 10.8219 11.0742V43.7667C10.8546 44.4348 11.1353 45.0668 11.6093 45.5398C12.0833 46.0128 12.7166 46.2929 13.3861 46.3256H37.6281C38.2985 46.294 38.933 46.0145 39.408 45.5414C39.883 45.0682 40.1643 44.4356 40.1972 43.7667V11.0742C40.1972 10.4531 40.4445 9.85737 40.8846 9.41815C41.3248 8.97893 41.9217 8.73218 42.5441 8.73218C43.1666 8.73218 43.7635 8.97893 44.2037 9.41815C44.6438 9.85737 44.8911 10.4531 44.8911 11.0742V43.7667C44.8623 45.6803 44.086 47.5071 42.7277 48.8581C41.3693 50.2091 39.5362 50.9777 37.6185 51.0001Z" fill="#515151"/>
<path d="M48.6482 13.4019H2.34693C1.72448 13.4019 1.12754 13.1551 0.687402 12.7159C0.247266 12.2767 0 11.681 0 11.0598C0 10.4387 0.247266 9.84297 0.687402 9.40375C1.12754 8.96453 1.72448 8.71777 2.34693 8.71777H48.6482C48.9564 8.71777 49.2616 8.77835 49.5463 8.89605C49.8311 9.01375 50.0898 9.18627 50.3078 9.40375C50.5257 9.62123 50.6986 9.87941 50.8165 10.1636C50.9345 10.4477 50.9952 10.7523 50.9952 11.0598C50.9952 11.3674 50.9345 11.6719 50.8165 11.9561C50.6986 12.2402 50.5257 12.4984 50.3078 12.7159C50.0898 12.9334 49.8311 13.1059 49.5463 13.2236C49.2616 13.3413 48.9564 13.4019 48.6482 13.4019Z" fill="#515151"/>
<path d="M32.814 13.4019C32.1945 13.4006 31.6004 13.1555 31.161 12.7196C30.7215 12.2838 30.4722 11.6925 30.4671 11.0743V4.68423H20.5288V11.0743C20.5288 11.6954 20.2816 12.2912 19.8414 12.7304C19.4013 13.1696 18.8044 13.4163 18.1819 13.4163C17.5595 13.4163 16.9625 13.1696 16.5224 12.7304C16.0822 12.2912 15.835 11.6954 15.835 11.0743V2.34217C15.8337 2.0338 15.8935 1.72821 16.0109 1.44295C16.1282 1.15768 16.3009 0.898357 16.519 0.679854C16.737 0.461352 16.9962 0.287976 17.2816 0.169674C17.5669 0.0513727 17.8729 -0.0095241 18.1819 -0.00952148H32.814C33.4365 -0.00952148 34.0335 0.237231 34.4736 0.676452C34.9137 1.11567 35.161 1.71138 35.161 2.33254V11.0743C35.1572 11.6929 34.9082 12.2849 34.4685 12.721C34.0288 13.1571 33.434 13.4019 32.814 13.4019Z" fill="#515151"/>
<path d="M19.6008 40.0994C19.2922 40.1 18.9865 40.0399 18.7012 39.9225C18.4159 39.8051 18.1566 39.6326 17.9381 39.4151C17.7197 39.1975 17.5464 38.9391 17.4281 38.6547C17.3099 38.3702 17.249 38.0653 17.249 37.7573V21.9556C17.2764 21.3522 17.5359 20.7826 17.9735 20.3653C18.4111 19.948 18.9931 19.7151 19.5984 19.7151C20.2037 19.7151 20.7857 19.948 21.2232 20.3653C21.6608 20.7826 21.9203 21.3522 21.9477 21.9556V37.7573C21.9477 38.3785 21.7005 38.9742 21.2603 39.4134C20.8202 39.8526 20.2232 40.0994 19.6008 40.0994Z" fill="#515151"/>
<path d="M31.3938 40.0993C31.0854 40.0999 30.78 40.0398 30.4949 39.9223C30.2099 39.8048 29.9509 39.6324 29.7329 39.4147C29.5148 39.1971 29.3419 38.9387 29.2242 38.6543C29.1065 38.3698 29.0462 38.065 29.0469 37.7572V21.9556C29.0469 21.3344 29.2941 20.7387 29.7343 20.2995C30.1744 19.8603 30.7714 19.6135 31.3938 19.6135C32.0163 19.6135 32.6132 19.8603 33.0534 20.2995C33.4935 20.7387 33.7408 21.3344 33.7408 21.9556V37.7572C33.7414 38.065 33.6811 38.3698 33.5634 38.6543C33.4457 38.9387 33.2728 39.1971 33.0548 39.4147C32.8367 39.6324 32.5778 39.8048 32.2927 39.9223C32.0077 40.0398 31.7022 40.0999 31.3938 40.0993Z" fill="#515151"/>
</g>
<defs>
<clipPath id="clip0_221_2040">
<rect width="51" height="51" fill="white"/>
</clipPath>
</defs>
</svg>
