<svg width="159" height="58" fill="none" xmlns="http://www.w3.org/2000/svg"><g clip-path="url(#clip0)"><path d="M159 22.911v5.19h-6.979v-5.19H159zm0 6.788v27.747h-6.979V29.7H159zM129.741 47.026v10.422h-7.051l-.085-34.537h7.393l-.256 18.264 9.688-11.5h7.579l-9.538 10.831 10.264 16.942h-7.703L132.78 44.87l-3.039 2.157zM118.366 22.911v5.19h-6.979v-5.19h6.979zm0 6.822v27.713h-6.979V29.733h6.979zM76.88 43.783v13.665h-7.148V36.14c0-1.526-.021-2.8-.064-3.822-.043-1.021-.093-1.83-.144-2.62h6.77c.033.154.12.402.154.935.033.532.068 1.129.101 1.789.033.66.065 1.282.09 1.865.025.584.039 1.003.039 1.26h.101c.678-1.92 1.298-3.303 1.857-4.142.542-.806 1.187-1.399 1.933-1.776s1.68-.566 2.797-.566c.916 0 1.655.128 2.214.385v6.048c-1.136-.258-2.155-.385-3.053-.385-1.781 0-3.168.73-4.16 2.188-.99 1.458-1.487 3.62-1.487 6.484zM18.439 51.57c4.633 0 7.84-2.263 9.623-6.787l6.665 2.456c-1.436 3.446-3.54 6.008-6.315 7.688-2.774 1.68-6.1 2.52-9.971 2.52-3.908 0-7.236-.73-9.985-2.191-2.75-1.46-4.846-3.577-6.29-6.346C.724 46.14 0 42.814 0 38.929c0-3.918.692-7.228 2.075-9.93 1.383-2.7 3.423-4.758 6.122-6.168 2.696-1.41 5.998-2.116 9.907-2.116 4.288 0 7.781.841 10.478 2.522 2.698 1.68 4.59 4.15 5.68 7.41l-6.744 1.798c-.57-1.789-1.691-3.213-3.359-4.268-1.67-1.055-3.635-1.584-5.9-1.584-3.458 0-6.082 1.047-7.87 3.141-1.79 2.094-2.685 5.16-2.685 9.195 0 2.735.41 5.04 1.231 6.915.82 1.874 2.032 3.298 3.632 4.268 1.597.974 3.555 1.458 5.872 1.458zM98.055 43.801V57.45h-7.148V36.168c0-1.524-.022-2.797-.064-3.817-.043-1.02-.08-1.863-.131-2.652h6.82c.032.153.058.437.09.969.034.532.069 1.127.102 1.787.033.659.064 1.28.09 1.862.025.584.039 1.002.039 1.26h.1c.679-1.92 1.298-3.3 1.858-4.138.541-.805 1.186-1.397 1.932-1.773.747-.377 1.68-.566 2.798-.566.916 0 1.654.127 2.213.385v6.04c-1.136-.258-2.154-.385-3.053-.385-1.78 0-3.168.729-4.16 2.185-.99 1.456-1.486 3.616-1.486 6.476zM64.139 50.844V33.292c-1.991 1.923-4.415 3.057-7.104 3.893v7.105c0 2.301-.528 4.188-1.58 5.658-1.054 1.47-2.44 2.206-4.16 2.206-1.619 0-2.83-.6-3.64-1.8-.81-1.202-1.215-2.995-1.215-5.382v-7.787c-2.696-.86-5.12-1.94-7.103-3.893v13.694c0 3.427.775 6.028 2.326 7.801 1.551 1.773 3.776 2.66 6.675 2.66 2.005 0 3.737-.472 5.196-1.413 1.458-.942 2.66-2.445 3.603-4.512h.126c0 .588.026 1.336.076 2.244.05.907.337 2.47.439 3.68h6.565c-.068-.873-.118-2.322-.151-3.339a94.8 94.8 0 01-.053-3.263z" fill="#285AA5"/><path d="M62.285 24.096c-4.06 1.615-8.653 1.76-12.93.64-2.68-.744-5.284-1.94-7.6-3.61-.004.1-.012.199-.015.298-.085 1.922.042 3.86.475 5.717.418 1.858 1.138 3.65 2.227 5.154 1.078 1.51 2.578 2.672 4.297 3.22 1.72.536 3.61.438 5.338-.2 1.738-.625 3.326-1.709 4.699-3.028 2.55-2.464 4.381-5.685 5.52-9.13-.173.091-.346.183-.521.273-.476.276-.986.457-1.49.666zM53.707 5.654c.71.35 1.447.647 2.202.901 1.509.488 3.082.856 4.685.867.797.002 1.608-.09 2.358-.375.273-.096.528-.235.766-.398-.256-.47-.537-.925-.85-1.357-1.144-1.59-2.77-2.817-4.614-3.366a8.392 8.392 0 00-2.836-.29c-.953.062-1.885.31-2.768.664-.72.297-1.402.673-2.048 1.104.329.364.704.703 1.104 1.009.618.471 1.296.881 2 1.241z" fill="#FFB124"/><path d="M67.126 21.154l-.635.51c-.216.166-.42.353-.645.502l-.612.396c-1.044 3.885-2.922 7.595-5.747 10.481a15.99 15.99 0 01-2.787 2.268c6.859-2.091 11.916-8.49 12.255-16.146-.383.499-.797.974-1.242 1.412l-.587.577zM65.194 10.873c-.304-1.348-.762-2.673-1.407-3.892a3.351 3.351 0 01-.774.423c-.762.326-1.58.492-2.4.581-.822.09-1.652.09-2.48.026a16.139 16.139 0 01-2.454-.428 18.935 18.935 0 01-2.368-.827 13.963 13.963 0 01-2.23-1.23 9.08 9.08 0 01-1.45-1.219c-.574.46-1.115.965-1.622 1.498-1.318 1.398-2.4 3.014-3.284 4.724-.45.852-.837 1.737-1.183 2.638-.35.899-.65 1.818-.901 2.75a27.547 27.547 0 00-.526 2.326c2.199 2.081 4.92 3.646 7.82 4.625a23.746 23.746 0 005.975 1.158c2.036.123 4.108-.044 6.104-.591.495-.153 1-.278 1.474-.493.366-.15.74-.289 1.094-.466.54-1.858.91-3.777 1.018-5.72.12-1.962.014-3.951-.406-5.883z" fill="#FFB124"/><path d="M64.15 6.794a15.955 15.955 0 011.444 3.974c.843 3.672.618 7.551-.348 11.193l.133-.067c.23-.121.442-.279.666-.418l.662-.43.606-.505a11.141 11.141 0 001.59-1.65c.006-.122.016-.244.02-.365.132-4.669-1.498-8.965-4.268-12.213-.108.139-.23.266-.36.38l-.145.1zM49.657 1.86c.106.307.233.631.453.93.042.061.092.12.138.183a12.795 12.795 0 012.276-1.033c1.753-.608 3.674-.728 5.455-.244A16.583 16.583 0 0049.827.687c-.07.101-.13.207-.172.32-.069.257-.069.543.002.854zM62.981 5.2c.324.426.618.876.888 1.339.04-.03.08-.058.12-.09a2.58 2.58 0 00.334-.395 17.399 17.399 0 00-2.943-2.556A10.241 10.241 0 0162.98 5.2zM40.153 15.865c.221.292.454.574.694.851.11-.48.233-.957.367-1.428.596-1.957 1.387-3.855 2.442-5.596 1.051-1.738 2.325-3.332 3.808-4.682.55-.504 1.136-.971 1.748-1.39-.025-.03-.05-.058-.075-.09-.289-.358-.516-.802-.693-1.277-.122-.404-.174-.854-.122-1.31-4.652 1.03-8.604 4.007-11.014 8.069.05.539.138 1.08.27 1.615.453 1.87 1.366 3.66 2.575 5.238zM40.786 27.511a22.114 22.114 0 01-.485-7.533 20.9 20.9 0 01-2.279-2.286 17.9 17.9 0 01-2.614-4.149 18.299 18.299 0 00-.616 4.706c0 6.879 3.8 12.837 9.348 15.767-.264-.28-.51-.575-.741-.882-1.267-1.665-2.104-3.616-2.613-5.623z" fill="#FFB124"/></g><defs><clipPath id="clip0"><path fill="#fff" transform="translate(0 .552)" d="M0 0h159v56.897H0z"/></clipPath></defs></svg>