<svg id="Layer_1" data-name="Layer 1" xmlns="http://www.w3.org/2000/svg" viewBox="0 0 179.61 57.11"><defs><style>@import url('https://fonts.googleapis.com/css?family=Nunito:700');.cls-1{font-size:40px;fill:#333;font-family:Nunito;font-weight:700;}.cls-2{letter-spacing:-0.01em;}.cls-3{letter-spacing:0em;}.cls-4{fill:#f74b4b;}.cls-5{fill:#f49540;}</style></defs><title>logo-white-bg</title><text class="cls-1" transform="translate(0 46.11) scale(1.1 1)">ma<tspan class="cls-2" x="56.52" y="0">r</tspan><tspan class="cls-3" x="71.44" y="0">engo</tspan></text><path class="cls-4" d="M404.73,154.49c-.19-.17-4.6-4.07-9.65-3.5a9.68,9.68,0,0,0-2.77.76,9.69,9.69,0,0,0,.12-2.87c-.57-5-5.37-8.48-5.57-8.62a1.62,1.62,0,0,0-2.14.24c-.17.19-4.07,4.6-3.5,9.65.55,4.85,5,8.21,5.52,8.59s4.17,3.52,8.59,3.52a9.08,9.08,0,0,0,1-.06c5-.57,8.48-5.37,8.62-5.57a1.62,1.62,0,0,0-.24-2.14Zm0,0" transform="translate(-245.24 -139.96)"/><path class="cls-5" d="M405,156.63a1.62,1.62,0,0,0-.24-2.14c-.19-.17-4.6-4.07-9.65-3.5a9.68,9.68,0,0,0-2.77.76l-6,6.7.39.3c.45.4,4.17,3.52,8.59,3.52a9.08,9.08,0,0,0,1-.06c5-.57,8.48-5.37,8.62-5.57Zm0,0" transform="translate(-245.24 -139.96)"/></svg>