<svg width="16" height="20" viewBox="0 0 16 20" fill="none" xmlns="http://www.w3.org/2000/svg">
<path d="M14.0377 19.6721H1.96228C1.44761 19.6765 0.952143 19.4769 0.584375 19.1168C0.216607 18.7568 0.00651149 18.2656 0.000109791 17.751V8.58984C-0.00263846 8.3314 0.0462338 8.07501 0.143869 7.83571C0.241503 7.59641 0.385942 7.37901 0.568696 7.19625C0.75145 7.0135 0.968856 6.86907 1.20816 6.77144C1.44746 6.6738 1.70384 6.62493 1.96228 6.62767H14.0377C14.2962 6.62493 14.5525 6.6738 14.7918 6.77144C15.0311 6.86907 15.2486 7.0135 15.4313 7.19625C15.6141 7.37901 15.7585 7.59641 15.8561 7.83571C15.9537 8.07501 16.0026 8.3314 15.9999 8.58984V17.751C15.994 18.2658 15.784 18.7572 15.4162 19.1174C15.0483 19.4775 14.5525 19.677 14.0377 19.6721ZM1.96228 8.44235C1.94255 8.44097 1.92275 8.44383 1.90423 8.45075C1.88571 8.45768 1.8689 8.46849 1.85491 8.48247C1.84093 8.49646 1.83011 8.51328 1.82319 8.5318C1.81627 8.55032 1.8134 8.57011 1.81478 8.58984V17.751C1.82156 17.784 1.8405 17.8132 1.86781 17.8329C1.89513 17.8526 1.92883 17.8613 1.96228 17.8574H14.0377C14.0711 17.8609 14.1046 17.852 14.1318 17.8324C14.159 17.8127 14.178 17.7838 14.1852 17.751V8.58984C14.1866 8.57011 14.1837 8.55032 14.1768 8.5318C14.1699 8.51328 14.1591 8.49646 14.1451 8.48247C14.1311 8.46849 14.1143 8.45768 14.0957 8.45075C14.0772 8.44383 14.0574 8.44097 14.0377 8.44235H1.96228Z" fill="#B7BDD0"/>
<path d="M12.4336 8.44235C12.1929 8.44235 11.9621 8.34676 11.792 8.1766C11.6218 8.00644 11.5262 7.77566 11.5262 7.53501V2.76495C11.5228 2.51398 11.4216 2.27423 11.2441 2.09675C11.0667 1.91926 10.8269 1.81806 10.5759 1.81468H5.42317C5.17237 1.81807 4.93281 1.91933 4.75563 2.09687C4.57844 2.2744 4.47764 2.51415 4.47474 2.76495V7.53501C4.46414 7.76878 4.36383 7.98946 4.19465 8.15113C4.02548 8.31281 3.80048 8.40303 3.56647 8.40303C3.33247 8.40303 3.10749 8.31281 2.93831 8.15113C2.76914 7.98946 2.6688 7.76878 2.6582 7.53501V2.76495C2.65919 2.03195 2.95082 1.32924 3.46914 0.810928C3.98745 0.292612 4.69016 0.000987883 5.42317 0H10.5759C11.309 0.000987883 12.0117 0.292612 12.53 0.810928C13.0483 1.32924 13.3399 2.03195 13.3409 2.76495V7.53501C13.3404 7.7755 13.2447 8.006 13.0746 8.17605C12.9046 8.34611 12.674 8.44186 12.4336 8.44235Z" fill="#B7BDD0"/>
<path d="M7.99962 14.986C7.75898 14.986 7.5282 14.8904 7.35804 14.7203C7.18788 14.5501 7.09229 14.3193 7.09229 14.0787V12.2117C7.09229 11.9711 7.18788 11.7403 7.35804 11.5701C7.5282 11.4 7.75898 11.3044 7.99962 11.3044C8.24026 11.3044 8.47104 11.4 8.6412 11.5701C8.81136 11.7403 8.90696 11.9711 8.90696 12.2117V14.0787C8.90696 14.3193 8.81136 14.5501 8.6412 14.7203C8.47104 14.8904 8.24026 14.986 7.99962 14.986Z" fill="#B7BDD0"/>
</svg>
