<svg width="71" height="63" viewBox="0 0 71 63" fill="none" xmlns="http://www.w3.org/2000/svg">
<path d="M23.0098 30.1026V45.5109C23.0098 45.8221 23.0712 46.1303 23.1907 46.4178C23.3101 46.7053 23.4852 46.9665 23.7059 47.1866C23.9266 47.4067 24.1886 47.5812 24.4769 47.7003C24.7653 47.8194 25.0743 47.8807 25.3864 47.8807H45.6122C46.921 47.8807 47.9916 46.8126 47.9916 45.5081V30.1005C47.9916 29.472 47.7412 28.8692 47.2955 28.4247C46.8498 27.9803 46.2453 27.7305 45.615 27.7305H25.3892C24.0804 27.7297 23.0098 28.7975 23.0098 30.1026ZM35.5007 32.909C36.1478 32.909 36.7684 33.1653 37.226 33.6215C37.6835 34.0778 37.9406 34.6966 37.9406 35.3418C37.9406 36.2319 37.454 37.0034 36.7366 37.4271L37.4389 42.3322C37.4455 42.3779 37.4421 42.4246 37.429 42.4689C37.4159 42.5132 37.3934 42.5542 37.363 42.5892C37.3326 42.6241 37.2951 42.6521 37.2529 42.6713C37.2108 42.6905 37.165 42.7004 37.1186 42.7004H33.8823C33.836 42.7003 33.7902 42.6903 33.7481 42.6711C33.706 42.6519 33.6685 42.6239 33.6382 42.589C33.6079 42.5541 33.5854 42.5131 33.5724 42.4688C33.5593 42.4245 33.5559 42.3779 33.5625 42.3322L34.2653 37.426C33.5479 37.0029 33.0616 36.2326 33.0616 35.3408C33.0619 34.6959 33.3189 34.0775 33.7763 33.6214C34.2337 33.1654 34.8539 32.9092 35.5007 32.909Z" fill="#515151"/>
<path d="M39.8841 23.1755C39.8841 23.2208 39.893 23.2657 39.9103 23.3076C39.9277 23.3495 39.9531 23.3876 39.9852 23.4197C40.0174 23.4518 40.0555 23.4772 40.0975 23.4946C40.1395 23.5119 40.1845 23.5209 40.23 23.5209H43.8932C43.9387 23.5209 43.9837 23.5119 44.0257 23.4946C44.0677 23.4773 44.1058 23.4518 44.138 23.4198C44.1701 23.3877 44.1956 23.3497 44.213 23.3078C44.2304 23.266 44.2393 23.2211 44.2393 23.1758V20.956C44.2648 20.3274 44.263 17.1845 42.0088 14.802C40.4475 13.1506 38.2573 12.3135 35.5007 12.3135C32.744 12.3135 30.553 13.1506 28.9928 14.802C26.7383 17.185 26.7375 20.3279 26.7623 20.956V26.814H31.1195V20.9069L31.1156 20.7798C31.1156 20.762 31.0608 18.9489 32.1613 17.7829C32.8669 17.036 33.9904 16.6579 35.4996 16.6579C36.9959 16.6579 38.1124 17.0299 38.8186 17.7628C39.9446 18.9305 39.8841 20.7798 39.8849 20.7798L39.8841 23.1755Z" fill="#515151"/>
<path d="M11.981 27.7443H8.55231C10.4112 14.573 21.7826 4.41866 35.4966 4.41866C45.882 4.41866 55.2164 10.2179 59.8182 19.3583C60.3426 20.4009 61.5672 20.8782 62.6491 20.4348C63.8322 19.9498 64.3741 18.5603 63.8023 17.4193C58.461 6.76429 47.5928 0 35.4977 0C19.3386 0 5.97904 12.1335 4.08747 27.745H0.659846C0.132951 27.745 -0.181759 28.3312 0.113823 28.7665L5.76073 37.112C5.82084 37.2007 5.90181 37.2733 5.99656 37.3236C6.09132 37.3739 6.19698 37.4002 6.30431 37.4004C6.41164 37.4005 6.51737 37.3745 6.61227 37.3245C6.70717 37.2745 6.78834 37.202 6.8487 37.1136L12.5221 28.7879C12.8195 28.3533 12.5078 27.7453 11.981 27.7443Z" fill="#515151"/>
<path d="M70.887 34.2323L65.2401 25.887C65.1801 25.7982 65.0992 25.7255 65.0045 25.6751C64.9098 25.6247 64.8041 25.5983 64.6967 25.5981C64.5894 25.598 64.4836 25.6241 64.3887 25.6741C64.2938 25.7242 64.2127 25.7967 64.1524 25.8852L58.4787 34.2104C58.4116 34.3088 58.3727 34.4236 58.3661 34.5423C58.3595 34.6611 58.3855 34.7795 58.4412 34.8847C58.4969 34.9898 58.5803 35.0779 58.6825 35.1394C58.7846 35.2009 58.9016 35.2335 59.0209 35.2337L62.4493 35.2398C60.5906 48.4124 49.2193 58.5794 35.5055 58.5794C25.1199 58.5794 15.7855 52.7815 11.1837 43.64C10.6593 42.5987 9.43469 42.1201 8.35284 42.5636C7.16975 43.0485 6.62781 44.438 7.19959 45.5788C12.541 56.2338 23.4091 62.9981 35.5042 62.9981C51.663 62.9981 65.0228 50.8585 66.9144 35.2469L70.341 35.2528C70.4602 35.2529 70.5772 35.2207 70.6794 35.1597C70.7816 35.0986 70.8653 35.0109 70.9214 34.9061C70.9775 34.8012 71.0039 34.6831 70.9979 34.5644C70.9918 34.4457 70.9535 34.3309 70.887 34.2323Z" fill="#515151"/>
</svg>
