<svg width="6" height="12" viewBox="0 0 6 12" fill="none" xmlns="http://www.w3.org/2000/svg">
<path d="M5.85438 6.57173C5.88378 6.51636 5.90941 6.45826 5.93103 6.39799C5.93611 6.38037 5.94005 6.36232 5.94282 6.34399C5.95974 6.29302 5.9729 6.24039 5.98213 6.18668C5.98213 6.16085 5.98213 6.13503 5.98213 6.1092C5.98897 6.06265 5.99291 6.01557 5.99392 5.96833C5.99392 5.9378 5.99392 5.90728 5.99392 5.87676C5.99204 5.83504 5.98811 5.79349 5.98213 5.75232C5.97701 5.72115 5.96978 5.69053 5.96051 5.66075C5.94875 5.62143 5.93497 5.58301 5.91924 5.54571C5.90995 5.52074 5.89945 5.49644 5.8878 5.47293C5.87183 5.42925 5.85344 5.3869 5.83277 5.34614C5.83277 5.33205 5.81311 5.32031 5.80525 5.30857C5.7778 5.25871 5.7462 5.2123 5.71092 5.17005L1.62314 0.340466C1.44306 0.127504 1.19953 0.00872762 0.946147 0.0102687C0.692761 0.0118098 0.450268 0.133541 0.272009 0.348682C0.0937505 0.563824 -0.0056721 0.854752 -0.00438213 1.15747C-0.00309217 1.46018 0.0987994 1.74989 0.278883 1.96285L3.68472 5.98711L0.278883 10.0513C0.190231 10.1574 0.119931 10.2832 0.0720028 10.4218C0.0240741 10.5603 -0.000538978 10.7087 -0.000447735 10.8586C-0.000356492 11.0085 0.0244453 11.1569 0.0725426 11.2953C0.12064 11.4338 0.191085 11.5595 0.279866 11.6655C0.368647 11.7714 0.474027 11.8553 0.589976 11.9126C0.705925 11.9699 0.830171 11.9993 0.955635 11.9992C1.0811 11.9991 1.20532 11.9694 1.3212 11.912C1.43708 11.8545 1.54234 11.7703 1.631 11.6643L5.71878 6.78069C5.76614 6.72528 5.80832 6.66387 5.84456 6.59756L5.85438 6.57173Z" fill="#374163"/>
</svg>
