<svg width="18" height="18" viewBox="0 0 18 18" fill="none" xmlns="http://www.w3.org/2000/svg">
<path d="M14.7631 3.23698C13.2239 1.69788 11.1767 0.85 8.99994 0.85C6.82319 0.85 4.77583 1.69788 3.2363 3.23697C1.6967 4.77612 0.85 6.82341 0.85 9C0.85 11.1766 1.69744 13.2238 3.23627 14.763C4.77511 16.3022 6.82273 17.15 8.99959 17.15C11.1765 17.15 13.2236 16.3021 14.7628 14.763C16.302 13.2239 17.15 11.1767 17.15 9C17.15 6.82336 16.3023 4.77622 14.7631 3.23699L14.6571 3.34305L14.7631 3.23698ZM8.99994 15.8676C5.21305 15.8676 2.13189 12.7867 2.13189 9C2.13189 5.21333 5.21294 2.13243 8.99982 2.13243C12.7867 2.13243 15.8676 5.21333 15.8676 9C15.8676 12.7867 12.7867 15.8676 8.99994 15.8676Z" fill="white" stroke="white" stroke-width="0.3"/>
<path d="M5 13L10.1548 10.1549L13 5L7.84566 7.84548L5 13ZM8.54989 8.55049C8.63887 8.46158 8.75222 8.40105 8.8756 8.37655C8.99898 8.35205 9.12686 8.36468 9.24306 8.41284C9.35927 8.461 9.45858 8.54254 9.52845 8.64714C9.59833 8.75173 9.63562 8.8747 9.63562 9.00049C9.63562 9.12629 9.59833 9.24925 9.52845 9.35385C9.45858 9.45845 9.35927 9.53998 9.24306 9.58815C9.12686 9.63631 8.99898 9.64894 8.8756 9.62444C8.75222 9.59994 8.63887 9.53941 8.54989 9.4505C8.49076 9.39142 8.44386 9.32127 8.41185 9.24406C8.37985 9.16684 8.36338 9.08408 8.36338 9.00049C8.36338 8.91691 8.37985 8.83414 8.41185 8.75693C8.44386 8.67971 8.49076 8.60956 8.54989 8.55049Z" fill="white"/>
</svg>
