<svg width="25" height="25" viewBox="0 0 25 25" fill="none" xmlns="http://www.w3.org/2000/svg">
<path d="M21.3517 1.33742L20.1259 2.5721C17.8211 0.807433 14.9738 -0.111571 12.0117 0.0108297H12.0106C8.84183 0.141994 5.86789 1.45554 3.63684 3.70866C1.99038 5.37159 0.868262 7.43525 0.345448 9.68199L0.339374 9.68018C0.300084 9.84573 0.269526 10.0123 0.237069 10.1787C0.228338 10.2247 0.215526 10.2694 0.20727 10.3155C0.206416 10.3201 0.20727 10.3245 0.206226 10.3291C-0.122799 12.1323 -0.0600684 13.9804 0.408463 15.7597C0.582228 16.4197 1.27416 16.7969 1.91655 16.5725C2.48074 16.3754 2.81736 15.777 2.66229 15.1979C2.26237 13.705 2.21777 12.1535 2.51329 10.6364C2.88692 8.64707 3.83499 6.81877 5.28566 5.35359C7.10351 3.51739 9.52674 2.44703 12.1091 2.33968H12.1103C14.4323 2.24357 16.6442 2.9212 18.4716 4.23827L17.2458 5.47342C17.0574 5.66307 17.157 5.98693 17.419 6.03703L22.5145 7.01262C22.568 7.02287 22.6231 7.01982 22.6751 7.00374C22.727 6.98766 22.7743 6.95903 22.8127 6.92037C22.8511 6.88171 22.8795 6.83419 22.8953 6.78197C22.9112 6.72975 22.914 6.67443 22.9036 6.62084L21.9142 1.50945C21.863 1.24655 21.54 1.14768 21.3517 1.33742Z" fill="#515151"/>
<path d="M3.64887 23.6624L4.87472 22.4277C7.17951 24.1924 10.0268 25.1114 12.9888 24.989H12.99C16.1588 24.8578 19.1327 23.5443 21.3636 21.2912C23.0102 19.6282 24.1323 17.5646 24.6551 15.3178L24.6612 15.3197C24.7005 15.1541 24.7311 14.9875 24.7635 14.8211C24.7722 14.7752 24.7851 14.7304 24.7933 14.6843C24.7942 14.6797 24.7933 14.6754 24.7944 14.6708C25.1234 12.8676 25.0607 11.0195 24.5921 9.24012C24.4184 8.58011 23.7264 8.20291 23.084 8.42733C22.5198 8.62441 22.1832 9.22288 22.3383 9.80193C22.7382 11.2948 22.7828 12.8463 22.4873 14.3634C22.1137 16.3528 21.1656 18.1811 19.7149 19.6462C17.8971 21.4824 15.4738 22.5528 12.8915 22.6602H12.8903C10.5683 22.7563 8.35639 22.0791 6.52896 20.7616L7.75481 19.5264C7.94319 19.3368 7.84363 19.0129 7.58161 18.9628L2.48604 17.9872C2.43262 17.977 2.37751 17.98 2.32553 17.9961C2.27355 18.0122 2.2263 18.0408 2.1879 18.0795C2.1495 18.1181 2.12113 18.1657 2.10528 18.2179C2.08942 18.2701 2.08656 18.3254 2.09694 18.379L3.08639 23.4904C3.13754 23.7533 3.46059 23.8521 3.64887 23.6624Z" fill="#515151"/>
</svg>
