<svg width="18" height="21" viewBox="0 0 18 21" fill="none" xmlns="http://www.w3.org/2000/svg">
<path d="M8.99995 11.5268C7.86002 11.5272 6.74558 11.1895 5.79758 10.5564C4.84958 9.92336 4.1106 9.02338 3.67411 7.97028C3.23762 6.91719 3.12321 5.75831 3.34537 4.64019C3.56753 3.52207 4.11627 2.49495 4.92219 1.68874C5.7281 0.882518 6.755 0.333422 7.873 0.110885C8.991 -0.111652 10.1499 0.0023682 11.2031 0.43853C12.2563 0.874692 13.1565 1.6134 13.7898 2.56123C14.4232 3.50906 14.7612 4.62342 14.7612 5.7634C14.7592 7.291 14.1516 8.75549 13.0717 9.83584C11.9917 10.9162 10.5275 11.5243 8.99995 11.5268ZM8.99995 1.85559C8.22709 1.85559 7.47158 2.08478 6.82897 2.51418C6.18636 2.94357 5.68551 3.55389 5.38974 4.26795C5.09398 4.98201 5.0166 5.76774 5.16738 6.52578C5.31815 7.28382 5.69032 7.98012 6.23682 8.52664C6.78331 9.07316 7.47959 9.44534 8.2376 9.59613C8.99562 9.74691 9.78131 9.66953 10.4953 9.37375C11.2094 9.07798 11.8197 8.5771 12.249 7.93447C12.6784 7.29183 12.9076 6.53629 12.9076 5.7634C12.9061 4.72745 12.4939 3.73437 11.7614 3.00184C11.0289 2.26931 10.0359 1.85711 8.99995 1.85559Z" fill="#fff"/>
<path d="M0.926703 20.1175C0.773082 20.117 0.621977 20.0785 0.486897 20.0053C0.351818 19.9321 0.236974 19.8266 0.152635 19.6982C0.0682955 19.5698 0.0170891 19.4225 0.00359416 19.2695C-0.00990074 19.1164 0.0147366 18.9624 0.0753028 18.8213C0.826898 17.0779 2.07259 15.5929 3.65857 14.5496C5.24454 13.5062 7.10135 12.9502 8.99973 12.9502C10.8981 12.9502 12.7549 13.5062 14.3409 14.5496C15.9269 15.5929 17.1726 17.0779 17.9242 18.8213C18.0216 19.0473 18.0253 19.3029 17.9344 19.5316C17.8434 19.7604 17.6653 19.9437 17.4393 20.0411C17.2132 20.1386 16.9577 20.1423 16.7289 20.0513C16.5002 19.9604 16.3169 19.7823 16.2194 19.5562C15.6111 18.1462 14.6033 16.9452 13.3203 16.1014C12.0373 15.2576 10.5353 14.808 8.99973 14.808C7.46415 14.808 5.96218 15.2576 4.67918 16.1014C3.39619 16.9452 2.38834 18.1462 1.78001 19.5562C1.70809 19.7229 1.58896 19.8648 1.43733 19.9646C1.2857 20.0643 1.10819 20.1175 0.926703 20.1175Z" fill="#fff"/>
</svg>
