<svg width="19" height="19" viewBox="0 0 19 19" fill="none" xmlns="http://www.w3.org/2000/svg">
<path fill-rule="evenodd" clip-rule="evenodd" d="M9.4973 3.83938e-07C11.3764 -0.000533744 13.2135 0.556246 14.7762 1.59991C16.3389 2.64358 17.557 4.12725 18.2763 5.86326C18.9957 7.59927 19.1841 9.50962 18.8176 11.3527C18.4511 13.1958 17.5463 14.8887 16.2175 16.2175C14.8887 17.5463 13.1958 18.4511 11.3527 18.8176C9.50962 19.1841 7.59927 18.9957 5.86326 18.2763C4.12725 17.557 2.64358 16.3389 1.59991 14.7762C0.556246 13.2135 -0.000533744 11.3764 3.83938e-07 9.4973C0.000716274 6.97868 1.00155 4.56342 2.78249 2.78249C4.56342 1.00155 6.97868 0.000716274 9.4973 3.83938e-07ZM13.6212 9.78897C13.8129 9.67194 13.8129 9.32896 13.6212 9.21103L7.4412 5.44092C6.95868 5.14655 6.82095 5.46702 6.82095 5.64166V13.3583C6.82095 13.533 6.95868 13.8535 7.4412 13.5591L13.6212 9.78897ZM9.4973 1.17028C7.84961 1.16975 6.23877 1.65789 4.86854 2.57297C3.49831 3.48804 2.43025 4.78894 1.79946 6.31111C1.16867 7.83327 1.00349 9.50832 1.3248 11.1244C1.64612 12.7404 2.43951 14.2249 3.6046 15.39C4.76969 16.5551 6.25416 17.3485 7.87021 17.6698C9.48627 17.9911 11.1613 17.8259 12.6835 17.1951C14.2057 16.5643 15.5066 15.4963 16.4216 14.1261C17.3367 12.7558 17.8248 11.145 17.8243 9.4973C17.8236 7.28906 16.9461 5.17146 15.3846 3.61C13.8231 2.04854 11.7055 1.171 9.4973 1.17028Z" fill="#656EE6"/>
</svg>
