<svg width="63" height="63" viewBox="0 0 63 63" fill="none" xmlns="http://www.w3.org/2000/svg">
<path d="M36.0769 50.977C35.4774 50.3748 34.765 49.897 33.9806 49.571C33.1962 49.245 32.3552 49.0771 31.5059 49.0771C30.6565 49.0771 29.8155 49.245 29.0311 49.571C28.2467 49.897 27.5343 50.3748 26.9349 50.977H26.9316C26.3296 51.577 25.852 52.2901 25.5262 53.0754C25.2004 53.8607 25.0329 54.7027 25.0332 55.553C25.0332 59.1232 27.9364 62.0288 31.5042 62.0288C35.0721 62.0288 37.9753 59.1232 37.9753 55.553C37.9757 54.7027 37.8082 53.8607 37.4824 53.0754C37.1566 52.2901 36.6789 51.5769 36.0769 50.977Z" fill="#E63A3B"/>
<path d="M31.4518 0C34.2729 0 37.4076 0.627172 37.512 3.5546C37.512 4.60024 37.4076 6.06409 37.1985 7.6327C36.4671 15.6844 34.3774 34.5052 33.5416 46.9487H29.4665C28.5263 34.5057 26.6456 16.2074 25.8096 7.73772C25.7052 6.37835 25.4961 4.4963 25.4961 3.45066C25.4961 0.731925 28.5263 0 31.4518 0Z" fill="#E63A3B"/>
<path d="M35.503 36.2362C35.299 38.4344 35.1018 40.6175 34.9175 42.7508C37.1667 43.3542 39.2173 44.5401 40.8627 46.1891L45.4353 41.6131C42.7662 38.9388 39.3372 37.0282 35.503 36.2362Z" fill="#515151"/>
<path d="M27.4627 36.2445C23.7158 37.0329 20.2802 38.8983 17.5771 41.612L22.1498 46.188C23.7834 44.5502 25.8171 43.3689 28.0485 42.7616C27.8612 40.6256 27.6645 38.4416 27.4627 36.2445Z" fill="#515151"/>
<path d="M36.7289 23.5797C36.518 25.6925 36.3041 27.8576 36.0923 30.0405C41.3987 30.9929 46.1489 33.5681 49.8115 37.2329L54.3841 32.6569C49.689 27.9589 43.5654 24.694 36.7289 23.5797Z" fill="#515151"/>
<path d="M26.2615 23.5828C19.4337 24.7003 13.3154 27.9635 8.62842 32.6578L13.2008 37.2327C16.855 33.5758 21.5923 31.0046 26.8828 30.0467C26.6756 27.8639 26.4671 25.6983 26.2615 23.5828Z" fill="#515151"/>
<path d="M37.9534 11.4215C37.7519 13.4269 37.5323 15.5955 37.3022 17.8723C45.4884 19.1283 52.8235 23.002 58.4256 28.6112L63.0001 24.0333C56.3687 17.3965 47.6643 12.8363 37.9534 11.4215Z" fill="#515151"/>
<path d="M25.0609 11.421C15.3492 12.8351 6.64128 17.3963 0.00878906 24.0353L4.58141 28.6113C10.1852 23.0034 17.5184 19.1305 25.7005 17.8734C25.4775 15.6028 25.2619 13.4358 25.0609 11.421Z" fill="#515151"/>
</svg>
